<?xml version="1.0" encoding="UTF-8"?>
<svg version="1.1" xmlns="http://www.w3.org/2000/svg" width="512" height="512">
<path d="M0 0 C19.17606349 14.77199149 34.05870847 35.00341511 38.51171875 59.26171875 C38.51171875 60.58171875 38.51171875 61.90171875 38.51171875 63.26171875 C39.54296875 63.17921875 40.57421875 63.09671875 41.63671875 63.01171875 C47.21928645 63.37188441 49.89249552 65.54516517 53.65625 69.53515625 C56.99039661 74.71879268 56.08444639 81.3465376 56.01171875 87.26171875 C56.0271875 88.51984375 56.04265625 89.77796875 56.05859375 91.07421875 C56.01017291 102.50153635 56.01017291 102.50153635 51.51171875 107.26171875 C47.28671752 110.75193716 44.89668274 111.45671745 39.51171875 111.26171875 C39.5206012 111.84086029 39.52948364 112.42000183 39.53863525 113.01669312 C39.62763402 119.08443254 39.6876693 125.15198434 39.73144531 131.22021484 C39.75146964 133.48005718 39.77869737 135.7398483 39.81347656 137.99951172 C39.86239953 141.26152237 39.88478007 144.52284362 39.90234375 147.78515625 C39.93331146 149.28264908 39.93331146 149.28264908 39.96490479 150.81039429 C39.96778885 159.97680544 37.56191282 167.93461701 31.21484375 174.73046875 C23.08918076 182.03611071 15.18932634 183.60370618 4.51171875 183.26171875 C4.24488281 183.99519531 3.97804687 184.72867188 3.703125 185.484375 C-0.33838589 194.90573318 -8.25408193 201.21823025 -17.48828125 205.26171875 C-18.47828125 205.26171875 -19.46828125 205.26171875 -20.48828125 205.26171875 C-20.51246045 209.26740649 -19.80184412 211.96561768 -17.48828125 215.26171875 C-12.45646035 218.22995928 -6.54176841 219.62337531 -1.00976562 221.39208984 C9.96640583 225.17763619 20.17245098 231.4756321 29.51171875 238.26171875 C30.31480469 238.84050781 31.11789063 239.41929687 31.9453125 240.015625 C40.20526126 246.29535616 47.25780644 253.87591713 54.51171875 261.26171875 C54.84171875 248.72171875 55.17171875 236.18171875 55.51171875 223.26171875 C66.07171875 223.26171875 76.63171875 223.26171875 87.51171875 223.26171875 C87.51171875 191.58171875 87.51171875 159.90171875 87.51171875 127.26171875 C98.07171875 127.26171875 108.63171875 127.26171875 119.51171875 127.26171875 C119.51171875 116.70171875 119.51171875 106.14171875 119.51171875 95.26171875 C124.79171875 95.26171875 130.07171875 95.26171875 135.51171875 95.26171875 C135.51171875 105.82171875 135.51171875 116.38171875 135.51171875 127.26171875 C140.79171875 127.26171875 146.07171875 127.26171875 151.51171875 127.26171875 C151.51171875 111.42171875 151.51171875 95.58171875 151.51171875 79.26171875 C156.79171875 79.26171875 162.07171875 79.26171875 167.51171875 79.26171875 C167.51171875 95.10171875 167.51171875 110.94171875 167.51171875 127.26171875 C172.79171875 127.26171875 178.07171875 127.26171875 183.51171875 127.26171875 C183.51171875 116.70171875 183.51171875 106.14171875 183.51171875 95.26171875 C188.79171875 95.26171875 194.07171875 95.26171875 199.51171875 95.26171875 C199.51171875 105.82171875 199.51171875 116.38171875 199.51171875 127.26171875 C210.07171875 127.26171875 220.63171875 127.26171875 231.51171875 127.26171875 C231.51171875 169.50171875 231.51171875 211.74171875 231.51171875 255.26171875 C236.79171875 255.26171875 242.07171875 255.26171875 247.51171875 255.26171875 C247.51171875 286.94171875 247.51171875 318.62171875 247.51171875 351.26171875 C250.64198019 349.69658803 251.14951933 346.58561843 252.33740234 343.46289062 C252.61412277 342.75234024 252.8908432 342.04178986 253.1759491 341.30970764 C253.77743513 339.76336106 254.37585399 338.2158188 254.97159958 336.66725159 C255.91454123 334.21908399 256.8674045 331.77500847 257.82339478 329.33190918 C260.54054655 322.38415618 263.24336513 315.43092331 265.9296875 308.47119141 C267.57219609 304.21787817 269.22969944 299.97067136 270.89680862 295.72694397 C271.53017852 294.10564673 272.15767612 292.48204305 272.77924728 290.85618591 C273.64784913 288.58519315 274.53521469 286.32241895 275.42724609 284.06054688 C275.68089432 283.38310928 275.93454254 282.70567169 276.19587708 282.00770569 C277.99967551 277.51564836 277.99967551 277.51564836 280.50234985 276.27453613 C283.73215227 276.25393384 286.29663407 277.48353403 289.26171875 278.69921875 C291.01742187 279.40884766 291.01742187 279.40884766 292.80859375 280.1328125 C293.700625 280.50535156 294.59265625 280.87789063 295.51171875 281.26171875 C293.2548926 289.53682262 290.17948798 297.41940796 286.96875 305.36328125 C286.43457236 306.69405146 285.90078089 308.02497673 285.36735535 309.35604858 C283.97548094 312.82627731 282.57843808 316.29440147 281.18023682 319.76208496 C279.49666674 323.9406999 277.81965413 328.12195039 276.14151764 332.30274963 C273.6032167 338.62441785 271.05670912 344.94272215 268.51171875 351.26171875 C278.08171875 351.26171875 287.65171875 351.26171875 297.51171875 351.26171875 C294.48487197 372.4496462 287.9713175 389.94191858 270.77734375 403.40234375 C258.22500685 411.74638273 245.49499224 415.51534433 230.57421875 415.67578125 C228.89320068 415.70483047 228.89320068 415.70483047 227.17822266 415.73446655 C223.62279712 415.79392007 220.06733862 415.84051061 216.51171875 415.88671875 C214.09113225 415.92493002 211.67055888 415.96398355 209.25 416.00390625 C203.33735681 416.0995933 197.42463352 416.18473966 191.51171875 416.26171875 C191.25994873 417.00067383 191.00817871 417.73962891 190.7487793 418.50097656 C190.4062915 419.47905273 190.06380371 420.45712891 189.7109375 421.46484375 C189.37666748 422.43067383 189.04239746 423.39650391 188.69799805 424.39160156 C184.6700568 434.13691486 176.10501304 441.52493519 166.57421875 445.69921875 C156.4242309 448.99689413 143.70424955 448.8767667 133.8984375 444.58203125 C121.72207443 437.84617083 116.29698645 429.42120493 111.51171875 416.26171875 C103.59171875 415.93171875 95.67171875 415.60171875 87.51171875 415.26171875 C87.51171875 436.38171875 87.51171875 457.50171875 87.51171875 479.26171875 C8.31171875 479.26171875 -70.88828125 479.26171875 -152.48828125 479.26171875 C-152.81828125 465.73171875 -153.14828125 452.20171875 -153.48828125 438.26171875 C-158.10828125 435.29171875 -162.72828125 432.32171875 -167.48828125 429.26171875 C-184.81364821 414.91706009 -196.75266982 395.63847799 -200.48828125 373.26171875 C-200.60446135 370.66421338 -200.6758194 368.09392731 -200.69140625 365.49609375 C-200.69710632 364.74442932 -200.7028064 363.99276489 -200.7086792 363.21832275 C-200.71810582 361.62472933 -200.72465387 360.03111662 -200.72851562 358.4375 C-200.73808357 356.06082251 -200.76906856 353.68506346 -200.80078125 351.30859375 C-201.03114525 318.17090469 -189.20249415 286.30345347 -167.48828125 261.26171875 C-166.78058594 260.43285156 -166.07289063 259.60398437 -165.34375 258.75 C-148.0536432 238.97690063 -123.87534781 222.96408476 -98.17578125 216.41796875 C-95.30228846 215.51710649 -95.30228846 215.51710649 -94.24609375 212.87890625 C-94.03726563 211.97398437 -93.8284375 211.0690625 -93.61328125 210.13671875 C-93.38898438 209.22664062 -93.1646875 208.3165625 -92.93359375 207.37890625 C-92.78664063 206.68023437 -92.6396875 205.9815625 -92.48828125 205.26171875 C-93.21273437 205.14957031 -93.9371875 205.03742188 -94.68359375 204.921875 C-104.41418954 202.63152585 -111.04806084 195.36656194 -116.42578125 187.38671875 C-117.48828125 185.26171875 -117.48828125 185.26171875 -117.48828125 183.26171875 C-118.16632813 183.308125 -118.844375 183.35453125 -119.54296875 183.40234375 C-128.32490726 183.74291754 -135.32771387 182.02390593 -142.30078125 176.51171875 C-147.79509662 171.38023553 -152.10617015 164.49212511 -152.66297913 156.87042236 C-152.71929609 153.9701728 -152.7129784 151.07643317 -152.68359375 148.17578125 C-152.68076385 147.11886078 -152.67793396 146.06194031 -152.67501831 144.97299194 C-152.66385975 141.61078374 -152.63876284 138.24884589 -152.61328125 134.88671875 C-152.60324587 132.60156636 -152.594121 130.31640977 -152.5859375 128.03125 C-152.56393457 122.44131464 -152.53049998 116.85153602 -152.48828125 111.26171875 C-153.87660156 111.31199219 -153.87660156 111.31199219 -155.29296875 111.36328125 C-160.44926182 111.19938929 -163.19270863 108.63267014 -166.63671875 104.98828125 C-169.96588979 99.8037662 -169.06099127 93.17546731 -168.98828125 87.26171875 C-169.00375 86.00359375 -169.01921875 84.74546875 -169.03515625 83.44921875 C-168.98677232 72.03061092 -168.98677232 72.03061092 -164.48828125 67.26171875 C-160.08711968 63.54518231 -157.20871808 62.8040838 -151.48828125 63.26171875 C-151.42640625 62.25109375 -151.36453125 61.24046875 -151.30078125 60.19921875 C-149.15579531 43.73500236 -140.56671591 27.4209763 -129.48828125 15.26171875 C-128.60398437 14.28460938 -127.7196875 13.3075 -126.80859375 12.30078125 C-94.45520604 -22.28123759 -38.62573904 -26.98344407 0 0 Z " fill="#000000" transform="translate(208.48828125,24.73828125)"/>
<path d="M0 0 C0 52.47 0 104.94 0 159 C-12.74221022 157.40722372 -22.26735845 154.53058426 -31.109375 144.640625 C-32.98892198 142.11849786 -34.55682747 139.80188459 -36 137 C-36.35304199 136.33009033 -36.70608398 135.66018066 -37.06982422 134.9699707 C-41.37223006 125.36126432 -40.43752086 115.10403395 -40.25 104.8125 C-40.22990117 102.8873884 -40.21165639 100.96225651 -40.1953125 99.03710938 C-40.15159214 94.35756496 -40.08275238 89.67901027 -40 85 C-45.28 85 -50.56 85 -56 85 C-55.93050225 90.61971871 -55.84224501 96.23873678 -55.73754883 101.85791016 C-55.70455612 103.76440574 -55.67644681 105.67099299 -55.65356445 107.57763672 C-55.41614071 126.84432062 -53.22401346 143.29269431 -39.28125 157.81640625 C-24.25001977 172.20417628 -3.65646938 174.94051176 16 179 C16 184.94 16 190.88 16 197 C10.13167014 197.09257663 4.26594333 197.17198427 -1.60253906 197.21972656 C-3.59253596 197.23965868 -5.58247571 197.26681452 -7.57226562 197.30175781 C-28.94494038 197.66728646 -47.53647404 193.73052322 -64 179 C-65.12148437 178.01773438 -65.12148437 178.01773438 -66.265625 177.015625 C-79.24028684 164.92359322 -87.05931949 147.52119547 -88.20507812 129.83422852 C-88.30407057 126.34499748 -88.32905652 122.86558762 -88.3125 119.375 C-88.30686035 118.13314941 -88.3012207 116.89129883 -88.29541016 115.61181641 C-88.17367936 106.38799689 -87.47889726 97.92591524 -85 89 C-84.81195801 88.3085791 -84.62391602 87.6171582 -84.43017578 86.90478516 C-78.43568295 65.44001805 -67.23452876 47.15455358 -52 31 C-51.38769531 30.32324219 -50.77539062 29.64648438 -50.14453125 28.94921875 C-38.92848966 17.01573314 -17.02388548 0 0 0 Z " fill="#FAD56F" transform="translate(112,259)"/>
<path d="M0 0 C36.96 0 73.92 0 112 0 C112 36.96 112 73.92 112 112 C96.16 112 80.32 112 64 112 C64 101.44 64 90.88 64 80 C42.88 80 21.76 80 0 80 C0 53.6 0 27.2 0 0 Z " fill="#DFB28B" transform="translate(312,168)"/>
<path d="M0 0 C26.4 0 52.8 0 80 0 C80 36.96 80 73.92 80 112 C53.6 112 27.2 112 0 112 C0 75.04 0 38.08 0 0 Z " fill="#E6E9ED" transform="translate(280,264)"/>
<path d="M0 0 C6.50616952 1.95185086 12.03993023 3.69634123 17.9375 6.75 C18.62497314 7.10215576 19.31244629 7.45431152 20.02075195 7.81713867 C39.45463343 17.91457914 56.30025509 32.33399476 68 51 C69.02540894 52.38783691 69.02540894 52.38783691 70.0715332 53.80371094 C73.18558101 59.31436726 72.49181054 65.44168672 72.390625 71.58984375 C72.38496521 72.88950577 72.37930542 74.18916779 72.37347412 75.5282135 C72.35829203 78.96273263 72.31907694 82.39656173 72.2746582 85.83081055 C72.23354326 89.34349232 72.21542874 92.85628695 72.1953125 96.36914062 C72.15257341 103.24637498 72.08441429 110.12315425 72 117 C71.01 117 70.02 117 69 117 C65.21484615 107.51812455 61.43336437 98.03479397 57.65660858 88.54957008 C55.90293424 84.14560093 54.1479825 79.74214972 52.39013672 75.33984375 C50.69485908 71.09409683 49.00290401 66.8470401 47.3132782 62.59904099 C46.6669567 60.97579892 46.0194243 59.35303847 45.37068176 57.73076248 C44.46464689 55.46449914 43.56287063 53.19658622 42.66210938 50.92822266 C42.39093796 50.2528093 42.11976654 49.57739594 41.84037781 48.8815155 C40 44.22810432 40 44.22810432 40 42 C35.38 43.98 30.76 45.96 26 48 C28.25261551 56.03610335 31.15900922 63.65745451 34.32421875 71.375 C34.83609273 72.63366884 35.34746155 73.89254322 35.85835266 75.15161133 C37.46300095 79.10314752 39.07506104 83.05163797 40.6875 87 C42.56767743 91.60687959 44.44478512 96.21498429 46.31662941 100.82525635 C47.0648621 102.66450025 47.81752188 104.50194113 48.57023621 106.33935547 C49.02103043 107.44811035 49.47182465 108.55686523 49.9362793 109.69921875 C50.33582321 110.67721436 50.73536713 111.65520996 51.14701843 112.6628418 C52 115 52 115 52 117 C42.43 117 32.86 117 23 117 C25.33932267 130.25616181 27.92968504 144.605109 37.60058594 154.7199707 C41.75669107 160.54246603 40.60868303 168.15933781 40.48828125 174.99609375 C40.47894479 176.55549481 40.47183261 178.11491064 40.46684265 179.67433167 C40.44783791 183.75997075 40.39879539 187.84470771 40.34332275 191.92999268 C40.28294767 196.84165558 40.26018278 201.75362172 40.23105621 206.66555023 C40.18272434 214.11099242 40.08686786 221.55445896 40 229 C26.8 229 13.6 229 0 229 C0 223.72 0 218.44 0 213 C2.289375 212.38125 2.289375 212.38125 4.625 211.75 C12.83497261 209.26845461 17.56997153 205.33933655 21.75 197.875 C23.89985498 192.42315781 23.93788368 186.37992044 22.37890625 180.76171875 C19.88518933 175.0538778 16.01246756 171.60050487 11 168 C7.37 167.01 3.74 166.02 0 165 C0 110.55 0 56.1 0 0 Z " fill="#FAD56F" transform="translate(192,259)"/>
<path d="M0 0 C31.68 0 63.36 0 96 0 C96.103125 9.85875 96.20625 19.7175 96.3125 29.875 C96.35802002 32.96858887 96.40354004 36.06217773 96.45043945 39.24951172 C96.46505483 41.72622598 96.47779301 44.20295233 96.48828125 46.6796875 C96.51386108 47.94562744 96.53944092 49.21156738 96.5657959 50.51586914 C96.57006129 59.2496815 95.28314722 66.26947955 89.27339172 72.9069519 C81.67484219 80.24033119 72.83266815 80.45806 62.8125 80.43359375 C61.55542236 80.4388356 60.29834473 80.44407745 59.00317383 80.44947815 C56.3536816 80.45588231 53.70505697 80.45603494 51.05566406 80.44604492 C47.67982748 80.43454864 44.305036 80.45479647 40.92933655 80.48396206 C37.68205346 80.50683477 34.43484467 80.49985297 31.1875 80.49609375 C29.98520752 80.50732773 28.78291504 80.51856171 27.54418945 80.53013611 C19.3309407 80.46223904 13.88381038 79.39062811 7.5390625 73.8515625 C6.90742187 73.11679688 6.27578125 72.38203125 5.625 71.625 C4.97789063 70.89539063 4.33078125 70.16578125 3.6640625 69.4140625 C0.46621976 64.77493852 -0.25008058 60.26941875 -0.22705078 54.71923828 C-0.22680908 53.48149658 -0.22656738 52.24375488 -0.22631836 50.96850586 C-0.21608643 49.68210205 -0.20585449 48.39569824 -0.1953125 47.0703125 C-0.19329834 45.87720459 -0.19128418 44.68409668 -0.18920898 43.45483398 C-0.17877005 39.0115167 -0.1508475 34.56825436 -0.125 30.125 C-0.08375 20.18375 -0.0425 10.2425 0 0 Z " fill="#EFCFB3" transform="translate(104,136)"/>
<path d="M0 0 C82.5 0 165 0 250 0 C247.93055301 7.24306447 245.75293745 10.51659061 241 16 C240.21109375 16.94939453 240.21109375 16.94939453 239.40625 17.91796875 C231.72398202 26.4475457 218.87565904 31.86470901 207.46777344 32.4675293 C205.43201833 32.52046976 203.39572995 32.55524286 201.359375 32.57421875 C199.73156097 32.59631157 199.73156097 32.59631157 198.07086182 32.61885071 C195.79177819 32.64267277 193.51259393 32.65818278 191.23339844 32.66577148 C187.7449989 32.6875312 184.26088345 32.76794134 180.7734375 32.84960938 C178.55210638 32.86559039 176.33074682 32.87808176 174.109375 32.88671875 C173.06972595 32.91859787 172.0300769 32.95047699 170.95892334 32.98332214 C168.08840186 32.95649971 165.74061909 32.85950268 163 32 C161.14322283 30.09650959 160.06931484 28.33925984 158.92901611 25.94465637 C156.63796236 21.14892439 152.04552921 19.37219433 147.28588867 17.63742065 C143.31664606 16.53059631 139.41012854 16.55229269 135.3125 16.56640625 C134.41055908 16.5611644 133.50861816 16.55592255 132.5793457 16.55052185 C130.6834414 16.54413423 128.7874973 16.54539609 126.89160156 16.55395508 C124.00774012 16.56247713 121.12585449 16.53363907 118.2421875 16.50195312 C116.39062559 16.500341 114.5390602 16.50091886 112.6875 16.50390625 C111.83518799 16.49267227 110.98287598 16.48143829 110.10473633 16.46986389 C103.36877821 16.54745002 98.08156379 18.28727203 92.9765625 22.78125 C92.30753906 23.63203125 92.30753906 23.63203125 91.625 24.5 C91.16351563 25.0671875 90.70203125 25.634375 90.2265625 26.21875 C88.94773503 28.07590072 87.98907856 29.97686099 87 32 C80.0990884 32.10220311 73.19837508 32.17179948 66.296875 32.21972656 C63.95370185 32.23972611 61.61057786 32.26693477 59.26757812 32.30175781 C55.88138629 32.35079125 52.49585959 32.37308621 49.109375 32.390625 C48.07762146 32.41127014 47.04586792 32.43191528 45.98284912 32.45318604 C32.26622367 32.45732961 20.16686863 27.137086 10.25 17.75 C5.7268905 13.00997405 0 6.83906486 0 0 Z " fill="#A9B1BC" transform="translate(235,392)"/>
<path d="M0 0 C21.12 0 42.24 0 64 0 C64 26.4 64 52.8 64 80 C42.88 80 21.76 80 0 80 C0 53.6 0 27.2 0 0 Z " fill="#D3A06C" transform="translate(376,296)"/>
<path d="M0 0 C0.66 0 1.32 0 2 0 C3.70585534 1.98405039 5.29896476 3.97828295 6.875 6.0625 C7.74616857 7.20015958 8.61865392 8.33681159 9.4921875 9.47265625 C9.99427734 10.17205322 10.49636719 10.8714502 11.01367188 11.59204102 C13.02367497 14.17476783 13.02367497 14.17476783 16.03320312 16.56225586 C22.48560227 22.42048276 25.38657006 28.10005896 25.96630859 36.86303711 C26.37834492 45.55249123 26.10919178 54.25359716 25.82397461 62.94287109 C25.69993318 67.12589206 25.64614349 71.30980031 25.5859375 75.49414062 C25.45826225 83.66518063 25.25421815 91.83192074 25 100 C24.03344482 99.96072388 24.03344482 99.96072388 23.04736328 99.9206543 C20.07349921 99.8154908 17.10002777 99.75130268 14.125 99.6875 C13.11179688 99.64560547 12.09859375 99.60371094 11.0546875 99.56054688 C2.33589855 99.42082269 -4.23436811 101.56789551 -10.734375 107.4921875 C-12.09017482 109.09497411 -13.44431408 110.69916671 -14.796875 112.3046875 C-17 114 -17 114 -20.13769531 113.60595703 C-21.08225586 113.40599121 -22.02681641 113.20602539 -23 113 C-23.32656234 102.34229366 -23.57421026 91.68580505 -23.72537041 81.02408695 C-23.79798105 76.07128924 -23.89617991 71.12194975 -24.05615234 66.17114258 C-25.25754168 28.00702363 -25.25754168 28.00702363 -16.2734375 18.25 C-14.48433684 16.55371397 -12.665485 14.98914501 -10.72351074 13.47129822 C-7.86560994 11.03161261 -5.85241246 8.0256507 -3.75 4.9375 C-2.54896599 3.25560087 -1.31489557 1.59446449 0 0 Z " fill="#E5E8EC" transform="translate(151,309)"/>
<path d="M0 0 C63.36 0 126.72 0 192 0 C192 5.28 192 10.56 192 16 C128.64 16 65.28 16 0 16 C0 10.72 0 5.44 0 0 Z " fill="#FC6E51" transform="translate(56,104)"/>
<path d="M0 0 C0 19.8 0 39.6 0 60 C-17.82 60 -35.64 60 -54 60 C-51.66613593 47.16374759 -51.66613593 47.16374759 -48.4375 41.0625 C-48.08598877 40.38429199 -47.73447754 39.70608398 -47.37231445 39.00732422 C-39.14352857 23.58810796 -19.79098202 0 0 0 Z " fill="#FD816D" transform="translate(128,28)"/>
<path d="M0 0 C21.99929033 6.5997871 37.02717131 19.93003984 48 40 C51.40334414 46.94147419 53.02296347 52.18370777 54 60 C36.18 60 18.36 60 0 60 C0 40.2 0 20.4 0 0 Z " fill="#FD816D" transform="translate(176,28)"/>
<path d="M0 0 C9 3 9 3 13.1875 4.5625 C19.29549541 6.38696616 25.68940898 7.098487 32 8 C32 23.84 32 39.68 32 56 C21.44 56 10.88 56 0 56 C0 37.52 0 19.04 0 0 Z " fill="#FBD66F" transform="translate(248,432)"/>
<path d="M0 0 C12.54 0 25.08 0 38 0 C42.59715867 13.791476 42.59715867 13.791476 40.09596252 18.81611633 C39.7311528 19.37348984 39.36634308 19.93086334 38.99047852 20.50512695 C38.57657364 21.14541336 38.16266876 21.78569977 37.73622131 22.44538879 C37.28830734 23.1195433 36.84039337 23.79369781 36.37890625 24.48828125 C35.68896828 25.5430793 35.68896828 25.5430793 34.98509216 26.6191864 C34.01469693 28.09837006 33.04033019 29.57495497 32.06225586 31.04907227 C30.5607308 33.31517007 29.07554648 35.5913752 27.59179688 37.86914062 C26.6467894 39.30531705 25.70085789 40.74088598 24.75390625 42.17578125 C24.30801651 42.86005692 23.86212677 43.54433258 23.40272522 44.24934387 C22.32098079 45.86921127 21.16707153 47.44048551 20 49 C19.34 49 18.68 49 18 49 C16.22574355 46.71148296 14.57867659 44.42156208 12.95703125 42.02734375 C12.46917648 41.31147598 11.98132172 40.59560822 11.47868347 39.85804749 C10.44682516 38.33646182 9.41896907 36.81215571 8.39477539 35.28540039 C6.82682985 32.95876371 5.23165176 30.65253585 3.63476562 28.34570312 C2.63627156 26.86576204 1.63947113 25.38467659 0.64453125 23.90234375 C0.16442093 23.21663803 -0.31568939 22.53093231 -0.81034851 21.82444763 C-3.01719893 18.46820715 -4.00432443 16.66791026 -3.9777832 12.56860352 C-2.81654997 8.33046464 -1.38961447 4.16884341 0 0 Z " fill="#EDCDB1" transform="translate(133,232)"/>
<path d="M0 0 C4.65405405 2.30810811 4.65405405 2.30810811 6 5 C6.07033769 6.87379605 6.0843022 8.75001102 6.0625 10.625 C6.05347656 11.62789063 6.04445312 12.63078125 6.03515625 13.6640625 C6.02355469 14.43492187 6.01195312 15.20578125 6 16 C7.24136719 15.96519531 8.48273438 15.93039062 9.76171875 15.89453125 C11.40363226 15.86638416 13.04556046 15.83908499 14.6875 15.8125 C15.50412109 15.78736328 16.32074219 15.76222656 17.16210938 15.73632812 C21.94015822 15.67829514 25.13423093 15.85096129 29 19 C30.40457737 21.80915474 30.24895157 23.88810534 30 27 C28.22015595 30.1359157 27.47691793 30.84102736 24 32 C22.3584155 32.08738898 20.71348378 32.11766621 19.06958008 32.11352539 C18.06876907 32.11344986 17.06795807 32.11337433 16.03681946 32.11329651 C14.95861435 32.10813522 13.88040924 32.10297394 12.76953125 32.09765625 C11.66397385 32.0962413 10.55841644 32.09482635 9.4193573 32.09336853 C5.88371083 32.08776514 2.34812738 32.07521204 -1.1875 32.0625 C-3.58268138 32.05748544 -5.97786375 32.05292246 -8.37304688 32.04882812 C-14.24871947 32.03779461 -20.12435523 32.02105316 -26 32 C-26.13360235 28.64231522 -26.21392578 25.28532232 -26.28515625 21.92578125 C-26.34249939 20.50900085 -26.34249939 20.50900085 -26.40100098 19.06359863 C-26.50447833 12.55019524 -25.69001303 9.17854945 -21.4375 4.1875 C-14.88812951 -1.17262034 -8.13689331 -1.63489542 0 0 Z " fill="#EECEB2" transform="translate(170,424)"/>
<path d="M0 0 C5.28 0 10.56 0 16 0 C16 26.4 16 52.8 16 80 C10.72 80 5.44 80 0 80 C0 53.6 0 27.2 0 0 Z " fill="#000000" transform="translate(328,280)"/>
<path d="M0 0 C5.28 0 10.56 0 16 0 C16 26.4 16 52.8 16 80 C10.72 80 5.44 80 0 80 C0 53.6 0 27.2 0 0 Z " fill="#000000" transform="translate(296,280)"/>
<path d="M0 0 C0.80232056 -0.00004028 1.60464111 -0.00008057 2.43127441 -0.00012207 C4.12239443 0.00522359 5.8135146 0.02276578 7.50439453 0.05175781 C10.08573724 0.09362006 12.66446867 0.09282315 15.24609375 0.0859375 C16.89324721 0.09643096 18.54038728 0.10936992 20.1875 0.125 C21.3392572 0.12530212 21.3392572 0.12530212 22.51428223 0.12561035 C27.02599744 0.22473308 30.01087988 0.78722566 33.59375 3.59375 C35.23289564 6.87204129 35.10555317 10.05230739 34.59375 13.59375 C31.95681964 21.27986989 27.84654293 26.71565721 20.71875 30.62109375 C14.87342911 33.17842164 8.63147705 33.70301567 2.4609375 32.0078125 C-4.40101486 29.07466423 -9.66395009 23.15094566 -12.90625 16.53125 C-13.57624048 12.59505594 -13.85203113 9.60578015 -13.40625 5.59375 C-9.58816133 0.42722416 -6.09972794 -0.13024444 0 0 Z " fill="#EDCDB2" transform="translate(349.40625,423.40625)"/>
<path d="M0 0 C5.28 0 10.56 0 16 0 C16 21.12 16 42.24 16 64 C10.72 64 5.44 64 0 64 C0 42.88 0 21.76 0 0 Z " fill="#FB6D50" transform="translate(144,24)"/>
<path d="M0 0 C15.84 0 31.68 0 48 0 C48 5.28 48 10.56 48 16 C32.16 16 16.32 16 0 16 C0 10.72 0 5.44 0 0 Z " fill="#E6E9ED" transform="translate(128,472)"/>
<path d="M0 0 C3.2175 0.4640625 3.2175 0.4640625 6.5 0.9375 C17.60979088 2.42481724 28.8087318 2.64560984 40 3 C40 8.28 40 13.56 40 19 C26.8 19 13.6 19 0 19 C0 12.73 0 6.46 0 0 Z " fill="#FBD66F" transform="translate(72,469)"/>
<path d="M0 0 C10.56 0 21.12 0 32 0 C32 5.28 32 10.56 32 16 C21.44 16 10.88 16 0 16 C0 10.72 0 5.44 0 0 Z " fill="#000000" transform="translate(392,344)"/>
<path d="M0 0 C10.56 0 21.12 0 32 0 C32 5.28 32 10.56 32 16 C21.44 16 10.88 16 0 16 C0 10.72 0 5.44 0 0 Z " fill="#000000" transform="translate(392,312)"/>
<path d="M0 0 C0 10.56 0 21.12 0 32 C-7.91317365 30.86954662 -7.91317365 30.86954662 -10.8125 28.1875 C-11.37582031 27.68605469 -11.93914062 27.18460938 -12.51953125 26.66796875 C-16.17097285 22.55407545 -16.43409959 18.80418144 -16.31640625 13.46875 C-15.6851283 8.54322326 -12.96946378 5.85405143 -9.375 2.6875 C-5.56066756 -0.02268357 -5.12122052 0 0 0 Z " fill="#E9CAAF" transform="translate(88,160)"/>
<path d="M0 0 C7.91317365 1.13045338 7.91317365 1.13045338 10.8125 3.8125 C11.37582031 4.31394531 11.93914062 4.81539062 12.51953125 5.33203125 C16.17097285 9.44592455 16.43409959 13.19581856 16.31640625 18.53125 C15.69970296 23.34305841 12.99340629 26.00659371 9.6875 29.3125 C7 31 7 31 0 32 C0 21.44 0 10.88 0 0 Z " fill="#EACAAF" transform="translate(216,160)"/>
<path d="M0 0 C0.33 0 0.66 0 1 0 C1 12.54 1 25.08 1 38 C-2.73129265 34.26870735 -5.72098967 30.88641701 -8.8125 26.6875 C-9.21919922 26.13771484 -9.62589844 25.58792969 -10.04492188 25.02148438 C-11.03368611 23.68374453 -12.01738585 22.34226377 -13 21 C-9.16206791 13.69316776 -4.84292918 6.68731576 0 0 Z " fill="#C7CCD4" transform="translate(175,275)"/>
<path d="M0 0 C2.35394026 2.94242532 4.52683502 5.66560562 6.578125 8.76953125 C7.01640625 9.43017578 7.4546875 10.09082031 7.90625 10.77148438 C8.3496875 11.44501953 8.793125 12.11855469 9.25 12.8125 C9.93835938 13.85180664 9.93835938 13.85180664 10.640625 14.91210938 C11.76254025 16.60666887 12.88156672 18.30314034 14 20 C11.60564135 24.20994849 8.8311963 27.99159498 5.875 31.8125 C5.19244141 32.7087207 5.19244141 32.7087207 4.49609375 33.62304688 C3.35661687 35.10233808 2.18139016 36.55396151 1 38 C0.67 38 0.34 38 0 38 C0 25.46 0 12.92 0 0 Z " fill="#C7CCD4" transform="translate(128,275)"/>
<path d="M0 0 C5.28 0 10.56 0 16 0 C16 5.28 16 10.56 16 16 C10.72 16 5.44 16 0 16 C0 10.72 0 5.44 0 0 Z " fill="#000000" transform="translate(392,248)"/>
<path d="M0 0 C5.28 0 10.56 0 16 0 C16 5.28 16 10.56 16 16 C10.72 16 5.44 16 0 16 C0 10.72 0 5.44 0 0 Z " fill="#000000" transform="translate(392,216)"/>
<path d="M0 0 C5.28 0 10.56 0 16 0 C16 5.28 16 10.56 16 16 C10.72 16 5.44 16 0 16 C0 10.72 0 5.44 0 0 Z " fill="#000000" transform="translate(360,216)"/>
<path d="M0 0 C5.28 0 10.56 0 16 0 C16 5.28 16 10.56 16 16 C10.72 16 5.44 16 0 16 C0 10.72 0 5.44 0 0 Z " fill="#000000" transform="translate(328,216)"/>
<path d="M0 0 C5.28 0 10.56 0 16 0 C16 5.28 16 10.56 16 16 C10.72 16 5.44 16 0 16 C0 10.72 0 5.44 0 0 Z " fill="#000000" transform="translate(392,184)"/>
<path d="M0 0 C5.28 0 10.56 0 16 0 C16 5.28 16 10.56 16 16 C10.72 16 5.44 16 0 16 C0 10.72 0 5.44 0 0 Z " fill="#000000" transform="translate(360,184)"/>
<path d="M0 0 C5.28 0 10.56 0 16 0 C16 5.28 16 10.56 16 16 C10.72 16 5.44 16 0 16 C0 10.72 0 5.44 0 0 Z " fill="#000000" transform="translate(328,184)"/>
<path d="M0 0 C5.28 0 10.56 0 16 0 C16 3.96 16 7.92 16 12 C10.72 10.68 5.44 9.36 0 8 C0 5.36 0 2.72 0 0 Z " fill="#636B76" transform="translate(216,136)"/>
<path d="M0 0 C5.28 0 10.56 0 16 0 C16 2.64 16 5.28 16 8 C14.08333333 8.47916667 12.16666667 8.95833333 10.25 9.4375 C9.18265625 9.70433594 8.1153125 9.97117188 7.015625 10.24609375 C6.02046875 10.49488281 5.0253125 10.74367187 4 11 C2.68 11.33 1.36 11.66 0 12 C0 8.04 0 4.08 0 0 Z " fill="#646C76" transform="translate(72,136)"/>
</svg>
